<svg id="visual" viewBox="0 0 1920 200" width="1920" height="200" xmlns="http://www.w3.org/2000/svg" xmlns:xlink="http://www.w3.org/1999/xlink" version="1.1"><path d="M0 120L16 111.7C32 103.3 64 86.7 96 82C128 77.3 160 84.7 192 89.3C224 94 256 96 288 91C320 86 352 74 384 75.3C416 76.7 448 91.3 480 97.7C512 104 544 102 576 95.7C608 89.3 640 78.7 672 80.2C704 81.7 736 95.3 768 106.3C800 117.3 832 125.7 864 128.2C896 130.7 928 127.3 960 124.3C992 121.3 1024 118.7 1056 115.3C1088 112 1120 108 1152 103.7C1184 99.3 1216 94.7 1248 95.7C1280 96.7 1312 103.3 1344 100.8C1376 98.3 1408 86.7 1440 78.7C1472 70.7 1504 66.3 1536 69.2C1568 72 1600 82 1632 89.7C1664 97.3 1696 102.7 1728 99.3C1760 96 1792 84 1824 84.8C1856 85.7 1888 99.3 1904 106.2L1920 113L1920 0L1904 0C1888 0 1856 0 1824 0C1792 0 1760 0 1728 0C1696 0 1664 0 1632 0C1600 0 1568 0 1536 0C1504 0 1472 0 1440 0C1408 0 1376 0 1344 0C1312 0 1280 0 1248 0C1216 0 1184 0 1152 0C1120 0 1088 0 1056 0C1024 0 992 0 960 0C928 0 896 0 864 0C832 0 800 0 768 0C736 0 704 0 672 0C640 0 608 0 576 0C544 0 512 0 480 0C448 0 416 0 384 0C352 0 320 0 288 0C256 0 224 0 192 0C160 0 128 0 96 0C64 0 32 0 16 0L0 0Z" fill="#3c3ccd"></path><path d="M0 67L16 66.8C32 66.7 64 66.3 96 70C128 73.7 160 81.3 192 85.3C224 89.3 256 89.7 288 92.2C320 94.7 352 99.3 384 100C416 100.7 448 97.3 480 94.3C512 91.3 544 88.7 576 82.2C608 75.7 640 65.3 672 64C704 62.7 736 70.3 768 79.3C800 88.3 832 98.7 864 105.7C896 112.7 928 116.3 960 116.3C992 116.3 1024 112.7 1056 105.8C1088 99 1120 89 1152 85.2C1184 81.3 1216 83.7 1248 80.5C1280 77.3 1312 68.7 1344 65.3C1376 62 1408 64 1440 68.8C1472 73.7 1504 81.3 1536 85.3C1568 89.3 1600 89.7 1632 93.5C1664 97.3 1696 104.7 1728 101.5C1760 98.3 1792 84.7 1824 83.2C1856 81.7 1888 92.3 1904 97.7L1920 103L1920 0L1904 0C1888 0 1856 0 1824 0C1792 0 1760 0 1728 0C1696 0 1664 0 1632 0C1600 0 1568 0 1536 0C1504 0 1472 0 1440 0C1408 0 1376 0 1344 0C1312 0 1280 0 1248 0C1216 0 1184 0 1152 0C1120 0 1088 0 1056 0C1024 0 992 0 960 0C928 0 896 0 864 0C832 0 800 0 768 0C736 0 704 0 672 0C640 0 608 0 576 0C544 0 512 0 480 0C448 0 416 0 384 0C352 0 320 0 288 0C256 0 224 0 192 0C160 0 128 0 96 0C64 0 32 0 16 0L0 0Z" fill="#3038b6"></path><path d="M0 88L16 83.5C32 79 64 70 96 66C128 62 160 63 192 65.5C224 68 256 72 288 69.5C320 67 352 58 384 62.2C416 66.3 448 83.7 480 88.7C512 93.7 544 86.3 576 77.5C608 68.7 640 58.3 672 59.2C704 60 736 72 768 76.3C800 80.7 832 77.3 864 76.5C896 75.7 928 77.3 960 74.5C992 71.7 1024 64.3 1056 66C1088 67.7 1120 78.3 1152 79.8C1184 81.3 1216 73.7 1248 76C1280 78.3 1312 90.7 1344 90C1376 89.3 1408 75.7 1440 70.5C1472 65.3 1504 68.7 1536 76C1568 83.3 1600 94.7 1632 91C1664 87.3 1696 68.7 1728 64.7C1760 60.7 1792 71.3 1824 73.7C1856 76 1888 70 1904 67L1920 64L1920 0L1904 0C1888 0 1856 0 1824 0C1792 0 1760 0 1728 0C1696 0 1664 0 1632 0C1600 0 1568 0 1536 0C1504 0 1472 0 1440 0C1408 0 1376 0 1344 0C1312 0 1280 0 1248 0C1216 0 1184 0 1152 0C1120 0 1088 0 1056 0C1024 0 992 0 960 0C928 0 896 0 864 0C832 0 800 0 768 0C736 0 704 0 672 0C640 0 608 0 576 0C544 0 512 0 480 0C448 0 416 0 384 0C352 0 320 0 288 0C256 0 224 0 192 0C160 0 128 0 96 0C64 0 32 0 16 0L0 0Z" fill="#26339f"></path><path d="M0 43L16 44.2C32 45.3 64 47.7 96 47.7C128 47.7 160 45.3 192 50.3C224 55.3 256 67.7 288 75.3C320 83 352 86 384 82.3C416 78.7 448 68.3 480 69.2C512 70 544 82 576 86.3C608 90.7 640 87.3 672 81.2C704 75 736 66 768 59.5C800 53 832 49 864 47.8C896 46.7 928 48.3 960 51C992 53.7 1024 57.3 1056 56.8C1088 56.3 1120 51.7 1152 54.5C1184 57.3 1216 67.7 1248 70C1280 72.3 1312 66.7 1344 67.5C1376 68.3 1408 75.7 1440 74.3C1472 73 1504 63 1536 57.8C1568 52.7 1600 52.3 1632 50.3C1664 48.3 1696 44.7 1728 49.2C1760 53.7 1792 66.3 1824 66.7C1856 67 1888 55 1904 49L1920 43L1920 0L1904 0C1888 0 1856 0 1824 0C1792 0 1760 0 1728 0C1696 0 1664 0 1632 0C1600 0 1568 0 1536 0C1504 0 1472 0 1440 0C1408 0 1376 0 1344 0C1312 0 1280 0 1248 0C1216 0 1184 0 1152 0C1120 0 1088 0 1056 0C1024 0 992 0 960 0C928 0 896 0 864 0C832 0 800 0 768 0C736 0 704 0 672 0C640 0 608 0 576 0C544 0 512 0 480 0C448 0 416 0 384 0C352 0 320 0 288 0C256 0 224 0 192 0C160 0 128 0 96 0C64 0 32 0 16 0L0 0Z" fill="#1f2e88"></path><path d="M0 78L16 71.8C32 65.7 64 53.3 96 51C128 48.7 160 56.3 192 58.2C224 60 256 56 288 55.5C320 55 352 58 384 55.2C416 52.3 448 43.7 480 42.2C512 40.7 544 46.3 576 46.5C608 46.7 640 41.3 672 39.5C704 37.7 736 39.3 768 43.5C800 47.7 832 54.3 864 60C896 65.7 928 70.3 960 70.3C992 70.3 1024 65.7 1056 64.3C1088 63 1120 65 1152 68.5C1184 72 1216 77 1248 75.3C1280 73.7 1312 65.3 1344 58.2C1376 51 1408 45 1440 49C1472 53 1504 67 1536 71C1568 75 1600 69 1632 61.8C1664 54.7 1696 46.3 1728 45C1760 43.7 1792 49.3 1824 57C1856 64.7 1888 74.3 1904 79.2L1920 84L1920 0L1904 0C1888 0 1856 0 1824 0C1792 0 1760 0 1728 0C1696 0 1664 0 1632 0C1600 0 1568 0 1536 0C1504 0 1472 0 1440 0C1408 0 1376 0 1344 0C1312 0 1280 0 1248 0C1216 0 1184 0 1152 0C1120 0 1088 0 1056 0C1024 0 992 0 960 0C928 0 896 0 864 0C832 0 800 0 768 0C736 0 704 0 672 0C640 0 608 0 576 0C544 0 512 0 480 0C448 0 416 0 384 0C352 0 320 0 288 0C256 0 224 0 192 0C160 0 128 0 96 0C64 0 32 0 16 0L0 0Z" fill="#1a2871"></path><path d="M0 45L16 44C32 43 64 41 96 43C128 45 160 51 192 49C224 47 256 37 288 39C320 41 352 55 384 57.8C416 60.7 448 52.3 480 48.5C512 44.7 544 45.3 576 49C608 52.7 640 59.3 672 56.8C704 54.3 736 42.7 768 43.8C800 45 832 59 864 65C896 71 928 69 960 68.2C992 67.3 1024 67.7 1056 63.7C1088 59.7 1120 51.3 1152 46C1184 40.7 1216 38.3 1248 37.3C1280 36.3 1312 36.7 1344 39.2C1376 41.7 1408 46.3 1440 50.7C1472 55 1504 59 1536 58.7C1568 58.3 1600 53.7 1632 55C1664 56.3 1696 63.7 1728 64.3C1760 65 1792 59 1824 59.2C1856 59.3 1888 65.7 1904 68.8L1920 72L1920 0L1904 0C1888 0 1856 0 1824 0C1792 0 1760 0 1728 0C1696 0 1664 0 1632 0C1600 0 1568 0 1536 0C1504 0 1472 0 1440 0C1408 0 1376 0 1344 0C1312 0 1280 0 1248 0C1216 0 1184 0 1152 0C1120 0 1088 0 1056 0C1024 0 992 0 960 0C928 0 896 0 864 0C832 0 800 0 768 0C736 0 704 0 672 0C640 0 608 0 576 0C544 0 512 0 480 0C448 0 416 0 384 0C352 0 320 0 288 0C256 0 224 0 192 0C160 0 128 0 96 0C64 0 32 0 16 0L0 0Z" fill="#16225b"></path><path d="M0 36L16 36C32 36 64 36 96 38.7C128 41.3 160 46.7 192 49.3C224 52 256 52 288 52.3C320 52.7 352 53.3 384 49.8C416 46.3 448 38.7 480 35.8C512 33 544 35 576 38C608 41 640 45 672 47C704 49 736 49 768 47.5C800 46 832 43 864 42.5C896 42 928 44 960 42.2C992 40.3 1024 34.7 1056 34.7C1088 34.7 1120 40.3 1152 41.7C1184 43 1216 40 1248 39.2C1280 38.3 1312 39.7 1344 37.3C1376 35 1408 29 1440 31.2C1472 33.3 1504 43.7 1536 44.8C1568 46 1600 38 1632 32.7C1664 27.3 1696 24.7 1728 29.2C1760 33.7 1792 45.3 1824 47.8C1856 50.3 1888 43.7 1904 40.3L1920 37L1920 0L1904 0C1888 0 1856 0 1824 0C1792 0 1760 0 1728 0C1696 0 1664 0 1632 0C1600 0 1568 0 1536 0C1504 0 1472 0 1440 0C1408 0 1376 0 1344 0C1312 0 1280 0 1248 0C1216 0 1184 0 1152 0C1120 0 1088 0 1056 0C1024 0 992 0 960 0C928 0 896 0 864 0C832 0 800 0 768 0C736 0 704 0 672 0C640 0 608 0 576 0C544 0 512 0 480 0C448 0 416 0 384 0C352 0 320 0 288 0C256 0 224 0 192 0C160 0 128 0 96 0C64 0 32 0 16 0L0 0Z" fill="#141c45"></path><path d="M0 21L16 23.3C32 25.7 64 30.3 96 29.3C128 28.3 160 21.7 192 21.5C224 21.3 256 27.7 288 31.3C320 35 352 36 384 36.2C416 36.3 448 35.7 480 36.2C512 36.7 544 38.3 576 38C608 37.7 640 35.3 672 32.5C704 29.7 736 26.3 768 27C800 27.7 832 32.3 864 34.7C896 37 928 37 960 33.2C992 29.3 1024 21.7 1056 18.8C1088 16 1120 18 1152 22.5C1184 27 1216 34 1248 34.2C1280 34.3 1312 27.7 1344 24.7C1376 21.7 1408 22.3 1440 22.8C1472 23.3 1504 23.7 1536 24.5C1568 25.3 1600 26.7 1632 30.7C1664 34.7 1696 41.3 1728 44.5C1760 47.7 1792 47.3 1824 47C1856 46.7 1888 46.3 1904 46.2L1920 46L1920 0L1904 0C1888 0 1856 0 1824 0C1792 0 1760 0 1728 0C1696 0 1664 0 1632 0C1600 0 1568 0 1536 0C1504 0 1472 0 1440 0C1408 0 1376 0 1344 0C1312 0 1280 0 1248 0C1216 0 1184 0 1152 0C1120 0 1088 0 1056 0C1024 0 992 0 960 0C928 0 896 0 864 0C832 0 800 0 768 0C736 0 704 0 672 0C640 0 608 0 576 0C544 0 512 0 480 0C448 0 416 0 384 0C352 0 320 0 288 0C256 0 224 0 192 0C160 0 128 0 96 0C64 0 32 0 16 0L0 0Z" fill="#111630"></path><path d="M0 13L16 15.7C32 18.3 64 23.7 96 22.8C128 22 160 15 192 11.7C224 8.3 256 8.7 288 12C320 15.3 352 21.7 384 21.3C416 21 448 14 480 14.3C512 14.7 544 22.3 576 22.3C608 22.3 640 14.7 672 11.5C704 8.3 736 9.7 768 10.2C800 10.7 832 10.3 864 12.7C896 15 928 20 960 22.2C992 24.3 1024 23.7 1056 22C1088 20.3 1120 17.7 1152 17.8C1184 18 1216 21 1248 23C1280 25 1312 26 1344 26C1376 26 1408 25 1440 24.2C1472 23.3 1504 22.7 1536 23.5C1568 24.3 1600 26.7 1632 24.5C1664 22.3 1696 15.7 1728 12.2C1760 8.7 1792 8.3 1824 10.3C1856 12.3 1888 16.7 1904 18.8L1920 21L1920 0L1904 0C1888 0 1856 0 1824 0C1792 0 1760 0 1728 0C1696 0 1664 0 1632 0C1600 0 1568 0 1536 0C1504 0 1472 0 1440 0C1408 0 1376 0 1344 0C1312 0 1280 0 1248 0C1216 0 1184 0 1152 0C1120 0 1088 0 1056 0C1024 0 992 0 960 0C928 0 896 0 864 0C832 0 800 0 768 0C736 0 704 0 672 0C640 0 608 0 576 0C544 0 512 0 480 0C448 0 416 0 384 0C352 0 320 0 288 0C256 0 224 0 192 0C160 0 128 0 96 0C64 0 32 0 16 0L0 0Z" fill="#0d0d1d"></path><path d="M0 19L16 16C32 13 64 7 96 4.3C128 1.7 160 2.3 192 5C224 7.7 256 12.3 288 12.2C320 12 352 7 384 4.5C416 2 448 2 480 5C512 8 544 14 576 14.2C608 14.3 640 8.7 672 8.3C704 8 736 13 768 13.7C800 14.3 832 10.7 864 11.5C896 12.3 928 17.7 960 18.3C992 19 1024 15 1056 12C1088 9 1120 7 1152 6.5C1184 6 1216 7 1248 7.5C1280 8 1312 8 1344 10.2C1376 12.3 1408 16.7 1440 17.5C1472 18.3 1504 15.7 1536 15.2C1568 14.7 1600 16.3 1632 17.3C1664 18.3 1696 18.7 1728 17.8C1760 17 1792 15 1824 13.3C1856 11.7 1888 10.3 1904 9.7L1920 9L1920 0L1904 0C1888 0 1856 0 1824 0C1792 0 1760 0 1728 0C1696 0 1664 0 1632 0C1600 0 1568 0 1536 0C1504 0 1472 0 1440 0C1408 0 1376 0 1344 0C1312 0 1280 0 1248 0C1216 0 1184 0 1152 0C1120 0 1088 0 1056 0C1024 0 992 0 960 0C928 0 896 0 864 0C832 0 800 0 768 0C736 0 704 0 672 0C640 0 608 0 576 0C544 0 512 0 480 0C448 0 416 0 384 0C352 0 320 0 288 0C256 0 224 0 192 0C160 0 128 0 96 0C64 0 32 0 16 0L0 0Z" fill="#010103"></path></svg>