<svg id="visual" viewBox="0 0 1920 200" width="1920" height="200" xmlns="http://www.w3.org/2000/svg" xmlns:xlink="http://www.w3.org/1999/xlink" version="1.1"><path d="M0 54L45.7 60.2C91.3 66.3 182.7 78.7 274.2 71.5C365.7 64.3 457.3 37.7 548.8 35C640.3 32.3 731.7 53.7 823 63.8C914.3 74 1005.7 73 1097 69.5C1188.3 66 1279.7 60 1371.2 57.8C1462.7 55.7 1554.3 57.3 1645.8 64.2C1737.3 71 1828.7 83 1874.3 89L1920 95L1920 201L1874.3 201C1828.7 201 1737.3 201 1645.8 201C1554.3 201 1462.7 201 1371.2 201C1279.7 201 1188.3 201 1097 201C1005.7 201 914.3 201 823 201C731.7 201 640.3 201 548.8 201C457.3 201 365.7 201 274.2 201C182.7 201 91.3 201 45.7 201L0 201Z" fill="#3c3ccd"></path><path d="M0 34L45.7 41C91.3 48 182.7 62 274.2 68.3C365.7 74.7 457.3 73.3 548.8 70.2C640.3 67 731.7 62 823 67.3C914.3 72.7 1005.7 88.3 1097 85.8C1188.3 83.3 1279.7 62.7 1371.2 55.5C1462.7 48.3 1554.3 54.7 1645.8 53.3C1737.3 52 1828.7 43 1874.3 38.5L1920 34L1920 201L1874.3 201C1828.7 201 1737.3 201 1645.8 201C1554.3 201 1462.7 201 1371.2 201C1279.7 201 1188.3 201 1097 201C1005.7 201 914.3 201 823 201C731.7 201 640.3 201 548.8 201C457.3 201 365.7 201 274.2 201C182.7 201 91.3 201 45.7 201L0 201Z" fill="#243bb6"></path><path d="M0 69L45.7 71.3C91.3 73.7 182.7 78.3 274.2 81.8C365.7 85.3 457.3 87.7 548.8 94.2C640.3 100.7 731.7 111.3 823 116.2C914.3 121 1005.7 120 1097 119.5C1188.3 119 1279.7 119 1371.2 106.8C1462.7 94.7 1554.3 70.3 1645.8 63.5C1737.3 56.7 1828.7 67.3 1874.3 72.7L1920 78L1920 201L1874.3 201C1828.7 201 1737.3 201 1645.8 201C1554.3 201 1462.7 201 1371.2 201C1279.7 201 1188.3 201 1097 201C1005.7 201 914.3 201 823 201C731.7 201 640.3 201 548.8 201C457.3 201 365.7 201 274.2 201C182.7 201 91.3 201 45.7 201L0 201Z" fill="#0e379e"></path><path d="M0 123L45.7 119.8C91.3 116.7 182.7 110.3 274.2 109.7C365.7 109 457.3 114 548.8 110.3C640.3 106.7 731.7 94.3 823 90.2C914.3 86 1005.7 90 1097 97.2C1188.3 104.3 1279.7 114.7 1371.2 113.7C1462.7 112.7 1554.3 100.3 1645.8 100.7C1737.3 101 1828.7 114 1874.3 120.5L1920 127L1920 201L1874.3 201C1828.7 201 1737.3 201 1645.8 201C1554.3 201 1462.7 201 1371.2 201C1279.7 201 1188.3 201 1097 201C1005.7 201 914.3 201 823 201C731.7 201 640.3 201 548.8 201C457.3 201 365.7 201 274.2 201C182.7 201 91.3 201 45.7 201L0 201Z" fill="#003385"></path><path d="M0 126L45.7 122.8C91.3 119.7 182.7 113.3 274.2 108.5C365.7 103.7 457.3 100.3 548.8 97.5C640.3 94.7 731.7 92.3 823 94C914.3 95.7 1005.7 101.3 1097 112.5C1188.3 123.7 1279.7 140.3 1371.2 146.5C1462.7 152.7 1554.3 148.3 1645.8 142.7C1737.3 137 1828.7 130 1874.3 126.5L1920 123L1920 201L1874.3 201C1828.7 201 1737.3 201 1645.8 201C1554.3 201 1462.7 201 1371.2 201C1279.7 201 1188.3 201 1097 201C1005.7 201 914.3 201 823 201C731.7 201 640.3 201 548.8 201C457.3 201 365.7 201 274.2 201C182.7 201 91.3 201 45.7 201L0 201Z" fill="#002d6d"></path><path d="M0 169L45.7 163.2C91.3 157.3 182.7 145.7 274.2 143.7C365.7 141.7 457.3 149.3 548.8 147.2C640.3 145 731.7 133 823 131.7C914.3 130.3 1005.7 139.7 1097 146.3C1188.3 153 1279.7 157 1371.2 154.8C1462.7 152.7 1554.3 144.3 1645.8 141.7C1737.3 139 1828.7 142 1874.3 143.5L1920 145L1920 201L1874.3 201C1828.7 201 1737.3 201 1645.8 201C1554.3 201 1462.7 201 1371.2 201C1279.7 201 1188.3 201 1097 201C1005.7 201 914.3 201 823 201C731.7 201 640.3 201 548.8 201C457.3 201 365.7 201 274.2 201C182.7 201 91.3 201 45.7 201L0 201Z" fill="#002653"></path><path d="M0 135L45.7 136.8C91.3 138.7 182.7 142.3 274.2 145.7C365.7 149 457.3 152 548.8 154.8C640.3 157.7 731.7 160.3 823 160.7C914.3 161 1005.7 159 1097 162.5C1188.3 166 1279.7 175 1371.2 176.3C1462.7 177.7 1554.3 171.3 1645.8 167.3C1737.3 163.3 1828.7 161.7 1874.3 160.8L1920 160L1920 201L1874.3 201C1828.7 201 1737.3 201 1645.8 201C1554.3 201 1462.7 201 1371.2 201C1279.7 201 1188.3 201 1097 201C1005.7 201 914.3 201 823 201C731.7 201 640.3 201 548.8 201C457.3 201 365.7 201 274.2 201C182.7 201 91.3 201 45.7 201L0 201Z" fill="#001d39"></path><path d="M0 180L45.7 181.5C91.3 183 182.7 186 274.2 185.8C365.7 185.7 457.3 182.3 548.8 182.2C640.3 182 731.7 185 823 187.5C914.3 190 1005.7 192 1097 189.5C1188.3 187 1279.7 180 1371.2 179.5C1462.7 179 1554.3 185 1645.8 183C1737.3 181 1828.7 171 1874.3 166L1920 161L1920 201L1874.3 201C1828.7 201 1737.3 201 1645.8 201C1554.3 201 1462.7 201 1371.2 201C1279.7 201 1188.3 201 1097 201C1005.7 201 914.3 201 823 201C731.7 201 640.3 201 548.8 201C457.3 201 365.7 201 274.2 201C182.7 201 91.3 201 45.7 201L0 201Z" fill="#001220"></path></svg>