<svg id="visual" viewBox="0 0 1920 200" width="1920" height="200" xmlns="http://www.w3.org/2000/svg" xmlns:xlink="http://www.w3.org/1999/xlink" version="1.1"><rect x="0" y="0" width="1920" height="200" fill="#001220"></rect><path d="M0 105L53.3 113.3C106.7 121.7 213.3 138.3 320 145.5C426.7 152.7 533.3 150.3 640 147.7C746.7 145 853.3 142 960 135.3C1066.7 128.7 1173.3 118.3 1280 115.8C1386.7 113.3 1493.3 118.7 1600 118C1706.7 117.3 1813.3 110.7 1866.7 107.3L1920 104L1920 0L1866.7 0C1813.3 0 1706.7 0 1600 0C1493.3 0 1386.7 0 1280 0C1173.3 0 1066.7 0 960 0C853.3 0 746.7 0 640 0C533.3 0 426.7 0 320 0C213.3 0 106.7 0 53.3 0L0 0Z" fill="#ff2a83"></path><path d="M0 94L53.3 97.7C106.7 101.3 213.3 108.7 320 113.5C426.7 118.3 533.3 120.7 640 119.5C746.7 118.3 853.3 113.7 960 107.3C1066.7 101 1173.3 93 1280 99C1386.7 105 1493.3 125 1600 125C1706.7 125 1813.3 105 1866.7 95L1920 85L1920 0L1866.7 0C1813.3 0 1706.7 0 1600 0C1493.3 0 1386.7 0 1280 0C1173.3 0 1066.7 0 960 0C853.3 0 746.7 0 640 0C533.3 0 426.7 0 320 0C213.3 0 106.7 0 53.3 0L0 0Z" fill="#c82a68"></path><path d="M0 121L53.3 111.3C106.7 101.7 213.3 82.3 320 83C426.7 83.7 533.3 104.3 640 116.5C746.7 128.7 853.3 132.3 960 131.5C1066.7 130.7 1173.3 125.3 1280 121C1386.7 116.7 1493.3 113.3 1600 105.3C1706.7 97.3 1813.3 84.7 1866.7 78.3L1920 72L1920 0L1866.7 0C1813.3 0 1706.7 0 1600 0C1493.3 0 1386.7 0 1280 0C1173.3 0 1066.7 0 960 0C853.3 0 746.7 0 640 0C533.3 0 426.7 0 320 0C213.3 0 106.7 0 53.3 0L0 0Z" fill="#93264d"></path><path d="M0 58L53.3 58.5C106.7 59 213.3 60 320 63.2C426.7 66.3 533.3 71.7 640 69.3C746.7 67 853.3 57 960 61.5C1066.7 66 1173.3 85 1280 84.3C1386.7 83.7 1493.3 63.3 1600 55.3C1706.7 47.3 1813.3 51.7 1866.7 53.8L1920 56L1920 0L1866.7 0C1813.3 0 1706.7 0 1600 0C1493.3 0 1386.7 0 1280 0C1173.3 0 1066.7 0 960 0C853.3 0 746.7 0 640 0C533.3 0 426.7 0 320 0C213.3 0 106.7 0 53.3 0L0 0Z" fill="#621f35"></path><path d="M0 28L53.3 32.3C106.7 36.7 213.3 45.3 320 48.5C426.7 51.7 533.3 49.3 640 53C746.7 56.7 853.3 66.3 960 64C1066.7 61.7 1173.3 47.3 1280 42.5C1386.7 37.7 1493.3 42.3 1600 41.3C1706.7 40.3 1813.3 33.7 1866.7 30.3L1920 27L1920 0L1866.7 0C1813.3 0 1706.7 0 1600 0C1493.3 0 1386.7 0 1280 0C1173.3 0 1066.7 0 960 0C853.3 0 746.7 0 640 0C533.3 0 426.7 0 320 0C213.3 0 106.7 0 53.3 0L0 0Z" fill="#33161e"></path><path d="M0 14L53.3 12.7C106.7 11.3 213.3 8.7 320 11.7C426.7 14.7 533.3 23.3 640 27.2C746.7 31 853.3 30 960 27.3C1066.7 24.7 1173.3 20.3 1280 17.8C1386.7 15.3 1493.3 14.7 1600 19.7C1706.7 24.7 1813.3 35.3 1866.7 40.7L1920 46L1920 0L1866.7 0C1813.3 0 1706.7 0 1600 0C1493.3 0 1386.7 0 1280 0C1173.3 0 1066.7 0 960 0C853.3 0 746.7 0 640 0C533.3 0 426.7 0 320 0C213.3 0 106.7 0 53.3 0L0 0Z" fill="#020202"></path></svg>